<svg width="25" height="25" viewBox="0 0 25 25" fill="none" xmlns="http://www.w3.org/2000/svg">
<path fill-rule="evenodd" clip-rule="evenodd" d="M4.68744 4.6875C5.00796 4.6875 5.27213 4.86357 5.30823 5.09039L5.31244 5.14358V5.20833H19.6874V5.14358C19.6874 4.89169 19.9673 4.6875 20.3124 4.6875C20.633 4.6875 20.8971 4.86357 20.9332 5.09039L20.9374 5.14358V21.1064C20.9374 21.3583 20.6576 21.5625 20.3124 21.5625C20.0924 21.5625 19.899 21.4795 19.7876 21.3542H12.5H5.21228C5.1009 21.4795 4.90745 21.5625 4.68744 21.5625C4.36692 21.5625 4.10275 21.3864 4.06664 21.1596L4.06244 21.1064V5.14358C4.06244 4.89169 4.34226 4.6875 4.68744 4.6875ZM19.6874 20.3125H13.0208V19.375H19.0624V6.875H13.0208V6.25L19.6874 6.25V20.3125ZM11.9792 6.875V6.25L5.31244 6.25V20.3125H11.9792V19.375H5.93744V6.875H11.9792Z" fill="#606361" fill-opacity="0.75"/>
</svg>
